<svg width="133" height="110" viewBox="0 0 133 110" fill="none" xmlns="http://www.w3.org/2000/svg">
<g filter="url(#filter0_d_243_780)">
<rect x="29" y="21" width="75" height="53" rx="5.76117" fill="#0060AF"/>
<path fill-rule="evenodd" clip-rule="evenodd" d="M44.4261 52.5793C44.4261 51.868 44.4344 49.9667 44.4156 49.7325C44.432 46.9033 42.2263 44.9076 40.8329 45.0632C39.8687 45.1412 39.0605 45.5079 38.6267 46.5627C38.2244 47.5458 38.5841 48.8533 39.9211 49.1602C41.3506 49.4897 42.1856 49.7638 42.7898 50.1506C43.5301 50.6241 44.1344 51.5288 44.1504 52.5804" fill="white"/>
<path fill-rule="evenodd" clip-rule="evenodd" d="M43.8284 52.5847C43.8331 51.673 43.2874 50.8667 42.5742 50.4334C41.9416 50.0505 41.0923 49.799 39.7221 49.4748C39.2986 49.3738 38.8556 49.1493 38.7184 48.8633C38.3556 49.2042 38.2897 49.9707 38.3536 50.4188C38.4277 50.937 39.0773 51.7914 40.0553 51.8248C40.6525 51.8472 41.4076 51.705 41.7698 51.6332C42.3944 51.5074 43.3828 51.8723 43.5401 52.5836" fill="white"/>
<path fill-rule="evenodd" clip-rule="evenodd" d="M44.9309 40.6523C43.2725 40.6523 41.8402 41.6722 41.8452 43.4371C41.8504 44.9212 43.1301 45.7156 43.587 46.2831C44.277 47.1383 44.6505 48.1504 44.6892 49.6992C44.7196 50.9318 44.718 52.1489 44.7247 52.5803H45.0906C45.0844 52.129 45.0679 50.8369 45.0867 49.6611C45.1115 48.1118 45.4985 47.1383 46.1889 46.2831C46.6497 45.7156 47.9282 44.9212 47.931 43.4371C47.9374 41.6722 46.5056 40.6523 44.8489 40.6523" fill="white"/>
<path fill-rule="evenodd" clip-rule="evenodd" d="M45.3516 52.5793C45.3516 51.868 45.343 49.9667 45.3615 49.7325C45.3452 46.9033 47.5495 44.9076 48.9441 45.0632C49.9083 45.1412 50.7156 45.5079 51.1506 46.5627C51.5524 47.5458 51.1908 48.8533 49.8556 49.1602C48.425 49.4897 47.5913 49.7638 46.9855 50.1506C46.2461 50.6241 45.6841 51.5288 45.6668 52.5804" fill="white"/>
<path fill-rule="evenodd" clip-rule="evenodd" d="M45.9488 52.5847C45.9436 51.673 46.4891 50.8667 47.2002 50.4334C47.8356 50.0505 48.6858 49.799 50.0547 49.4748C50.4791 49.3738 50.9216 49.1493 51.0563 48.8633C51.4209 49.2042 51.4868 49.9707 51.4228 50.4188C51.3472 50.937 50.6992 51.7914 49.7229 51.8248C49.126 51.8472 48.3668 51.705 48.0062 51.6332C47.3839 51.5074 46.3928 51.8723 46.2348 52.5836" fill="white"/>
<path fill-rule="evenodd" clip-rule="evenodd" d="M46.4601 55.5253L46.248 54.0813L46.7603 54.0089C46.8848 53.9932 47.0366 54.0134 47.0974 54.0861C47.1645 54.1623 47.185 54.2252 47.1979 54.3249C47.2174 54.4485 47.1791 54.591 47.0301 54.6621V54.6665C47.1964 54.6665 47.297 54.778 47.3263 54.9662C47.3304 55.0061 47.3432 55.102 47.3304 55.1822C47.2966 55.3728 47.1748 55.4343 46.9688 55.4611L46.4601 55.5253ZM46.7898 55.2688C46.8506 55.2606 46.9122 55.2575 46.9603 55.2289C47.0341 55.184 47.0274 55.0881 47.017 55.0167C46.9915 54.8601 46.9477 54.8004 46.7695 54.825L46.6573 54.8411L46.7284 55.2767L46.7898 55.2688ZM46.6827 54.6022C46.7505 54.5921 46.8423 54.5844 46.8806 54.5244C46.9007 54.4843 46.9263 54.4524 46.9094 54.3633C46.8885 54.2578 46.8511 54.1921 46.707 54.2175L46.573 54.2377L46.6259 54.6077L46.6827 54.6022Z" fill="white"/>
<path fill-rule="evenodd" clip-rule="evenodd" d="M48.6795 54.658C48.6835 54.6849 48.6881 54.7148 48.6899 54.7417C48.7313 55.0049 48.6795 55.2231 48.3621 55.2831C47.8926 55.3672 47.8028 55.0955 47.7203 54.7148L47.6763 54.5087C47.6116 54.1446 47.5838 53.8688 48.0414 53.7837C48.2993 53.74 48.4697 53.8357 48.5406 54.0751C48.5517 54.1108 48.5655 54.146 48.5706 54.1821L48.29 54.2361C48.2575 54.146 48.2146 53.9853 48.0883 53.9988C47.8616 54.0244 47.9365 54.2873 47.9598 54.3974L48.0441 54.7927C48.0695 54.9122 48.1199 55.1032 48.316 55.0664C48.4752 55.0366 48.4057 54.8052 48.3916 54.7103" fill="white"/>
<path fill-rule="evenodd" clip-rule="evenodd" d="M49.1297 55.0939L49.0327 53.5995L49.4097 53.4922L50.2003 54.7919L49.9034 54.8747L49.7161 54.5444L49.3864 54.6368L49.429 55.0123L49.1297 55.0939ZM49.3591 54.3975L49.5974 54.3331L49.281 53.7285L49.3591 54.3975Z" fill="white"/>
<path fill-rule="evenodd" clip-rule="evenodd" d="M39.815 53.9656C39.933 53.6134 40.0386 53.3539 40.4891 53.4691C40.7301 53.532 40.8795 53.631 40.8724 53.8921C40.8712 53.9502 40.8507 54.0095 40.8372 54.0668L40.5569 53.9947C40.5936 53.8504 40.6169 53.736 40.4264 53.6813C40.2063 53.625 40.1527 53.8741 40.1223 53.9815L40.0083 54.3731C39.972 54.4895 39.9286 54.6817 40.1223 54.7315C40.2824 54.7715 40.3793 54.6251 40.4373 54.4111L40.2413 54.3625L40.3091 54.136L40.7703 54.2742L40.5513 55.0293L40.3391 54.9755L40.3869 54.8159H40.3809C40.2831 54.9466 40.164 54.9602 40.0597 54.9414C39.5985 54.8253 39.6467 54.5442 39.7567 54.1687" fill="white"/>
<path fill-rule="evenodd" clip-rule="evenodd" d="M41.5316 54.6017L41.3927 55.216L41.0801 55.1531L41.4132 53.7188L41.9461 53.8309C42.258 53.8938 42.3522 54.0232 42.3081 54.2899C42.2829 54.4429 42.202 54.6077 42.0044 54.5943L42.0024 54.5919C42.1694 54.6463 42.1835 54.725 42.1543 54.8606C42.1418 54.9185 42.055 55.269 42.1148 55.3256L42.1169 55.3687L41.7934 55.2899C41.78 55.1929 41.8259 55.0181 41.844 54.9213C41.8621 54.8357 41.8913 54.715 41.7981 54.6698C41.7253 54.6334 41.698 54.6352 41.6156 54.6177L41.5316 54.6017ZM41.585 54.382L41.7955 54.435C41.9233 54.4523 41.9944 54.3905 42.0196 54.2464C42.0424 54.1143 42.0129 54.0628 41.8981 54.0372L41.6725 53.9944L41.585 54.382Z" fill="white"/>
<path fill-rule="evenodd" clip-rule="evenodd" d="M43.5364 54.0373L43.8456 54.0708L43.7124 55.0793C43.6477 55.399 43.5152 55.5386 43.1381 55.495C42.7544 55.4496 42.6633 55.2868 42.6864 54.9645L42.8207 53.957L43.1322 53.9902L42.9985 54.9752C42.9842 55.0822 42.9578 55.2406 43.1617 55.2599C43.3427 55.2728 43.3838 55.1608 43.4043 55.0218" fill="white"/>
<path fill-rule="evenodd" clip-rule="evenodd" d="M44.1865 55.5513L44.2797 54.1094L44.8735 54.1333C45.1544 54.1464 45.2277 54.36 45.219 54.5641C45.2108 54.6881 45.1694 54.8266 45.0534 54.9018C44.9584 54.9656 44.8361 54.9808 44.7229 54.9756L44.5293 54.9656L44.4907 55.57L44.1865 55.5513ZM44.5382 54.7458L44.6955 54.754C44.8233 54.7584 44.908 54.7112 44.9191 54.5362C44.9255 54.3682 44.8571 54.3396 44.6915 54.3328L44.567 54.3288L44.5382 54.7458Z" fill="white"/>
<path fill-rule="evenodd" clip-rule="evenodd" d="M86.0792 42.0472L83.7185 46.0434C82.8274 45.3685 81.7395 44.872 80.3513 44.872C77.066 44.872 75.7314 47.1557 75.7314 48.7644C75.7314 49.9587 76.5698 51.7205 79.493 51.7205C80.7201 51.7205 82.4643 50.9246 82.9663 50.5623L80.6316 55.1985C79.5187 55.4056 79.1529 55.534 78.211 55.5612C72.9789 55.7068 70.8648 52.7092 70.8662 49.6465C70.8698 45.5973 74.7298 40.673 81.129 40.673C81.5209 40.673 82.0005 40.7996 82.4106 40.9397L82.8252 40.4453" fill="white"/>
<path fill-rule="evenodd" clip-rule="evenodd" d="M95.8209 40.5703L96.4894 55.0943H91.5143L91.5115 52.6035H88.119L87.0026 55.0943H81.6069L87.2479 44.723L85.976 44.7152L88.3926 40.5703H95.8209ZM91.4788 45.015L89.5609 49.2395H91.5367L91.4788 45.015Z" fill="white"/>
<path fill-rule="evenodd" clip-rule="evenodd" d="M67.7252 40.5682C70.1889 40.5811 71.5811 41.8283 71.5811 43.6299C71.5811 45.2909 70.1128 46.761 68.501 47.5212C70.1605 48.0903 70.304 49.4868 70.304 50.4747C70.304 52.8619 67.7359 55.0922 64.3975 55.0922H57.1167L59.9567 44.8653L58.7901 44.8591L61.1748 40.5682C61.1748 40.5682 65.7217 40.5553 67.7252 40.5682ZM65.3077 46.4541C65.8173 46.4541 66.7172 46.3338 66.9422 45.414C67.1887 44.4153 66.3442 44.3884 65.9391 44.3884L64.4917 44.3827L63.9869 46.4541H65.3077ZM63.2616 49.0242L62.5952 51.4112H64.2996C64.97 51.4112 65.8839 51.1007 66.1078 50.3239C66.329 49.545 65.6901 49.0242 65.0221 49.0242H63.2616Z" fill="white"/>
<path fill-rule="evenodd" clip-rule="evenodd" d="M44.9966 56.8819C42.4756 56.8819 39.885 56.3028 37.2978 55.1576L37.2343 55.1285L37.2039 55.0681C36.0429 52.7825 35.4287 50.2827 35.4287 47.8368C35.4287 45.3944 36.0177 43.0015 37.1794 40.7189L37.2115 40.6582L37.2762 40.628C39.6696 39.5706 42.244 39.0352 44.931 39.0352C47.4337 39.0352 50.1069 39.6313 52.6598 40.7623L52.7252 40.7895L52.7556 40.8513C53.9387 43.1791 54.5627 45.6784 54.5627 48.0839C54.5627 50.4798 53.9635 52.875 52.7789 55.2013L52.7478 55.2623L52.6819 55.2906C50.325 56.3311 47.6673 56.8819 44.9966 56.8819ZM37.5374 54.8438C40.0507 55.9466 42.5575 56.5033 44.9968 56.5033C47.5832 56.5033 50.1552 55.976 52.4451 54.9766C53.5825 52.7223 54.159 50.4022 54.159 48.0836C54.159 45.7553 53.5573 43.3337 52.419 41.0743C49.9415 39.9881 47.3541 39.4121 44.9312 39.4121C42.33 39.4121 39.8366 39.9266 37.5157 40.9419C36.4016 43.1542 35.8345 45.4725 35.8345 47.8365C35.8345 50.2046 36.4236 52.6274 37.5374 54.8438Z" fill="white"/>
<rect x="26" y="18" width="81" height="59" rx="9" stroke="white" stroke-opacity="0.2" stroke-width="6" shape-rendering="crispEdges"/>
</g>
<defs>
<filter id="filter0_d_243_780" x="0.727438" y="0.151626" width="131.545" height="109.545" filterUnits="userSpaceOnUse" color-interpolation-filters="sRGB">
<feFlood flood-opacity="0" result="BackgroundImageFix"/>
<feColorMatrix in="SourceAlpha" type="matrix" values="0 0 0 0 0 0 0 0 0 0 0 0 0 0 0 0 0 0 127 0" result="hardAlpha"/>
<feOffset dy="7.42419"/>
<feGaussianBlur stdDeviation="11.1363"/>
<feComposite in2="hardAlpha" operator="out"/>
<feColorMatrix type="matrix" values="0 0 0 0 0.795833 0 0 0 0 0.295122 0 0 0 0 0.355207 0 0 0 0.3 0"/>
<feBlend mode="normal" in2="BackgroundImageFix" result="effect1_dropShadow_243_780"/>
<feBlend mode="normal" in="SourceGraphic" in2="effect1_dropShadow_243_780" result="shape"/>
</filter>
</defs>
</svg>
