<svg width="133" height="110" viewBox="0 0 133 110" fill="none" xmlns="http://www.w3.org/2000/svg">
<g filter="url(#filter0_d_243_742)">
<rect x="29" y="21" width="75" height="53" rx="5.76117" fill="white"/>
<path fill-rule="evenodd" clip-rule="evenodd" d="M41.1634 52.4732L43.7087 55.5915H37.407L41.1634 52.4732ZM40.3623 51.5123L35.4328 55.6034L35.4308 45.5417L40.3623 51.5123ZM52.2235 41.38C52.2235 41.38 51.1414 40.8731 49.8842 40.9471C48.4469 41.0309 47.2445 41.5762 46.5533 42.2958C46.1183 42.7478 45.6375 43.2993 45.3959 43.8982C45.0457 44.7646 44.9709 45.9094 44.9709 45.9094C44.9709 45.9094 44.4682 45.4873 43.8384 44.2574C43.1061 42.8268 42.9058 41.9602 42.8066 40.9716C42.7183 40.104 42.8569 39.2461 42.8569 39.2461H52.2235V41.38ZM52.2237 44.2331V50.5774C52.2237 50.5774 51.6414 50.7986 51.1664 50.7986C50.6914 50.7986 49.8825 50.729 48.9431 50.218C48.0105 49.7111 47.4943 49.098 47.0941 48.5423C46.6882 47.9771 46.3531 47.1937 46.2535 46.6291C46.1734 46.1775 46.0871 45.0509 46.5534 44.1353C46.8065 43.6384 47.4856 42.7867 48.7931 42.7383C49.8589 42.6978 50.4499 42.975 50.9916 43.2691C52.0224 43.8299 52.2237 44.2331 52.2237 44.2331ZM42.0243 50.1311L43.7138 48.7378C43.1753 48.0574 43.0331 47.801 42.4311 46.9225C41.8149 46.0233 41.2987 45.0341 40.8572 43.8734C40.3794 42.6161 40.264 41.9102 40.3168 40.9716C40.3829 39.7773 40.6573 39.2461 40.6573 39.2461H35.4287L35.4311 42.034C35.4311 42.034 39.4335 46.9963 42.0243 50.1311ZM46.852 55.5888H52.2237V51.7138C52.2237 51.7138 50.8913 52.3185 50.0253 52.3673C49.5096 52.397 49.0092 52.4167 48.2017 52.2042C47.3041 51.9682 46.7942 51.7382 45.9622 51.0593C45.294 50.5148 44.53 49.7107 44.53 49.7107L42.8306 51.1125C43.6191 52.0666 44.2014 52.7612 44.3796 52.9481C45.1461 53.7494 45.4709 54.0439 45.9871 54.3295C46.5031 54.6156 48.2272 54.6002 48.2272 54.6002L46.852 55.5888Z" fill="#E94E0F"/>
<path fill-rule="evenodd" clip-rule="evenodd" d="M92.8505 52.1392C92.8505 53.262 93.0035 55.1075 91.7325 55.5568V55.6316H96.5596V55.5568C95.2894 55.0829 95.4418 53.262 95.4418 52.1392V42.7356C95.4418 41.6134 95.2894 39.7674 96.5596 39.2936V39.2188H91.7325V39.2936C93.0283 39.7674 92.8505 41.5884 92.8505 42.7356V52.1392ZM75.1504 42.7356L83.8648 53.5862C84.9823 55.0077 85.7704 55.8312 87.5741 56.4295V42.4363C87.5741 41.0397 87.5741 40.0417 88.8956 39.2936V39.2188H84.4237V39.2936C85.7704 40.0417 85.7445 41.0397 85.7445 42.4363V51.8899L76.4464 40.3659L76.0903 39.8671C75.9128 39.6676 75.8114 39.543 75.7097 39.2438V39.2188H71.9998V39.2936C73.321 40.0417 73.321 41.0397 73.321 42.4363V52.3892C73.321 53.7857 73.321 54.7832 71.9749 55.5568V55.6316H76.4719V55.5568C75.1252 54.7832 75.1504 53.7857 75.1504 52.3892V42.7356ZM60.9456 45.829V40.9402L62.6474 40.7652C64.172 40.6155 65.7977 41.5137 65.7977 43.235C65.7977 45.2803 63.4349 45.829 61.784 45.829H60.9456ZM60.9456 53.6362V47.475L62.7236 47.3753C64.9595 47.2505 67.3475 48.2985 67.3475 50.7179C67.3475 53.0875 65.2394 54.0353 63.1556 53.8358L60.9456 53.6362ZM58.354 52.1144C58.354 53.262 58.5066 55.0829 57.2358 55.5568V55.6316H61.428C63.3334 55.6316 65.341 55.7066 67.1191 54.8584C68.8213 54.0601 70.1681 52.4136 70.1681 50.4929C70.1681 48.0489 68.313 46.552 66.0264 46.0777C67.4748 45.4544 68.5669 44.5067 68.5669 42.8354C68.5669 40.6154 66.6112 39.2188 63.2578 39.2188H57.2358V39.2936C58.5322 39.7674 58.354 41.5884 58.354 42.7106V52.1144Z" fill="#005B6A"/>
<rect x="26" y="18" width="81" height="59" rx="9" stroke="white" stroke-opacity="0.2" stroke-width="6" shape-rendering="crispEdges"/>
</g>
<defs>
<filter id="filter0_d_243_742" x="0.727438" y="0.151626" width="131.545" height="109.545" filterUnits="userSpaceOnUse" color-interpolation-filters="sRGB">
<feFlood flood-opacity="0" result="BackgroundImageFix"/>
<feColorMatrix in="SourceAlpha" type="matrix" values="0 0 0 0 0 0 0 0 0 0 0 0 0 0 0 0 0 0 127 0" result="hardAlpha"/>
<feOffset dy="7.42419"/>
<feGaussianBlur stdDeviation="11.1363"/>
<feComposite in2="hardAlpha" operator="out"/>
<feColorMatrix type="matrix" values="0 0 0 0 0.795833 0 0 0 0 0.295122 0 0 0 0 0.355207 0 0 0 0.3 0"/>
<feBlend mode="normal" in2="BackgroundImageFix" result="effect1_dropShadow_243_742"/>
<feBlend mode="normal" in="SourceGraphic" in2="effect1_dropShadow_243_742" result="shape"/>
</filter>
</defs>
</svg>
