<svg width="133" height="110" viewBox="0 0 133 110" fill="none" xmlns="http://www.w3.org/2000/svg">
<g filter="url(#filter0_d_243_700)">
<rect x="29" y="21" width="75" height="53" rx="5.76117" fill="#00529C"/>
<path fill-rule="evenodd" clip-rule="evenodd" d="M51.2339 43.9961H54.8085C56.256 43.9961 57.3351 44.6297 57.3351 45.9636C57.3351 46.9417 56.8349 47.4863 55.9659 47.7749V47.7969C57.0016 48.0086 57.5361 48.5645 57.5361 49.5087C57.5361 51.3652 55.8988 51.7539 54.5072 51.7539H51.2339V43.9961ZM53.3043 47.0653H53.8839C54.5631 47.0653 55.265 46.8986 55.265 46.2423C55.265 45.5318 54.5966 45.4645 53.9056 45.4645H53.3043V47.0653ZM53.3043 50.2863H53.9178C54.6742 50.2863 55.4646 50.175 55.4646 49.3858C55.4646 48.5417 54.6522 48.4633 53.9394 48.4633H53.3043V50.2863Z" fill="white"/>
<path fill-rule="evenodd" clip-rule="evenodd" d="M60.2534 43.9961H62.7922L65.7876 51.7539H63.5158L62.9373 50.0983H60.0199L59.4071 51.7539H57.3027L60.2534 43.9961ZM61.5233 45.5995H61.4999L60.4984 48.6341H62.4468L61.5233 45.5995Z" fill="white"/>
<path fill-rule="evenodd" clip-rule="evenodd" d="M66.0762 43.9922H68.715L71.343 49.2608H71.3647L71.3318 43.9922H73.2254V51.75H70.653L67.9352 46.4486H67.9138L67.9802 51.75H66.0762V43.9922Z" fill="white"/>
<path fill-rule="evenodd" clip-rule="evenodd" d="M73.9287 43.9922H75.9995V47.1607H76.0219L78.3594 43.9922H80.8546L77.9812 47.6042L81.0772 51.75H78.4374L76.0219 48.227H75.9995V51.75H73.9287V43.9922Z" fill="white"/>
<path fill-rule="evenodd" clip-rule="evenodd" d="M83.6445 43.9961H87.2191C88.6663 43.9961 89.7468 44.6297 89.7468 45.9636C89.7468 46.9417 89.2466 47.4863 88.3776 47.7749V47.7969C89.413 48.0086 89.9474 48.5645 89.9474 49.5087C89.9474 51.3652 88.3105 51.7539 86.9192 51.7539H83.6445V43.9961ZM85.7164 47.0653H86.2949C86.9744 47.0653 87.6753 46.8986 87.6753 46.2423C87.6753 45.5318 87.008 45.4645 86.3179 45.4645H85.7164V47.0653ZM85.7164 50.2863H86.3291C87.0856 50.2863 87.8766 50.175 87.8766 49.3858C87.8766 48.5417 87.0639 48.4633 86.3512 48.4633H85.7164V50.2863Z" fill="white"/>
<path fill-rule="evenodd" clip-rule="evenodd" d="M90.4062 43.9961H94.1032C95.4836 43.9961 96.6088 44.6182 96.6088 45.9528C96.6088 46.9863 96.1188 47.6754 95.1169 47.9085V47.9305C95.7836 48.1088 95.829 48.6974 96.2187 49.6423L96.9762 51.7539H94.8163L94.3706 50.3544C93.9473 49.0205 93.6799 48.6863 92.9116 48.6863H92.4771V51.7539H90.4062V43.9961ZM92.4774 47.221H93.0234C93.6914 47.221 94.538 47.1983 94.538 46.3204C94.538 45.5985 93.8134 45.4645 93.0234 45.4645H92.4774V47.221Z" fill="white"/>
<mask id="mask0_243_700" style="mask-type:luminance" maskUnits="userSpaceOnUse" x="33" y="40" width="67" height="16">
<path fill-rule="evenodd" clip-rule="evenodd" d="M33.2856 55.6662H99.618V40.0781H33.2856V55.6662Z" fill="white"/>
</mask>
<g mask="url(#mask0_243_700)">
<path fill-rule="evenodd" clip-rule="evenodd" d="M97.5474 51.75H99.6182V43.9922H97.5474V51.75Z" fill="white"/>
<path fill-rule="evenodd" clip-rule="evenodd" d="M46.5073 40.0781H35.6679C34.3522 40.0781 33.2856 41.1691 33.2856 42.5152V42.5409V53.2298C33.2856 54.5627 34.3326 55.6463 35.6313 55.6662H46.5015C47.8176 55.6662 48.8845 54.5752 48.8845 53.2298L48.8896 42.5152C48.8896 41.1691 47.8233 40.0781 46.5073 40.0781ZM36.9565 54.4173L36.3651 54.4237C35.6493 54.4237 35.0691 53.8367 35.0691 53.1124L35.0657 53.0093V43.1141L35.0694 42.5812C35.0962 41.8803 35.6296 41.316 36.3285 41.316H37.5307C38.62 41.316 39.5035 42.2615 39.5035 43.3772C39.5035 43.9287 39.2869 44.4294 38.9362 44.7934L35.8689 47.9L38.7437 50.8218C39.1144 51.2031 39.3385 51.7044 39.3385 52.2535C39.3385 53.4487 38.2719 54.4173 36.9565 54.4173ZM45.7945 54.4075L40.4348 54.4051C40.4348 54.4051 41.0547 53.0681 41.0547 52.2407C41.0547 51.2318 40.7164 50.3303 40.1874 49.7339L38.3542 47.8685L40.2253 45.9388C40.7822 45.4162 41.1523 44.4886 41.1523 43.4321C41.1523 42.5954 40.9205 41.8542 40.5473 41.316H41.8461C42.9357 41.316 43.8193 42.2615 43.8193 43.3772C43.8193 43.9287 43.603 44.4294 43.2523 44.7934L40.2437 47.8675L46.4923 54.2278C46.2944 54.3523 46.0446 54.4075 45.7945 54.4075ZM47.1033 52.4228L42.6251 47.8673L44.7579 45.7035C45.1924 45.1619 45.4676 44.3456 45.4676 43.4332C45.4676 42.5912 45.2324 41.8321 44.8559 41.2935L45.8106 41.3219C46.5264 41.3219 47.1067 41.9099 47.1067 42.6338L47.1033 52.4228Z" fill="white"/>
</g>
<rect x="26" y="18" width="81" height="59" rx="9" stroke="white" stroke-opacity="0.2" stroke-width="6" shape-rendering="crispEdges"/>
</g>
<defs>
<filter id="filter0_d_243_700" x="0.727438" y="0.151626" width="131.545" height="109.545" filterUnits="userSpaceOnUse" color-interpolation-filters="sRGB">
<feFlood flood-opacity="0" result="BackgroundImageFix"/>
<feColorMatrix in="SourceAlpha" type="matrix" values="0 0 0 0 0 0 0 0 0 0 0 0 0 0 0 0 0 0 127 0" result="hardAlpha"/>
<feOffset dy="7.42419"/>
<feGaussianBlur stdDeviation="11.1363"/>
<feComposite in2="hardAlpha" operator="out"/>
<feColorMatrix type="matrix" values="0 0 0 0 0.795833 0 0 0 0 0.295122 0 0 0 0 0.355207 0 0 0 0.3 0"/>
<feBlend mode="normal" in2="BackgroundImageFix" result="effect1_dropShadow_243_700"/>
<feBlend mode="normal" in="SourceGraphic" in2="effect1_dropShadow_243_700" result="shape"/>
</filter>
</defs>
</svg>
