<svg width="95" height="83" viewBox="0 0 95 83" fill="none" xmlns="http://www.w3.org/2000/svg">
<g filter="url(#filter0_d_144_438)">
<rect x="29" y="21" width="37" height="26" rx="5.76117" fill="#108EE9"/>
<path fill-rule="evenodd" clip-rule="evenodd" d="M36.9876 29.8359H36.8643C35.8394 29.8572 34.8299 30.2606 34.0856 30.9546C33.213 31.7494 32.7123 32.9075 32.7012 34.0747V34.1833C32.7221 35.3263 33.2087 36.4577 34.056 37.2439C34.8065 37.9574 35.8351 38.373 36.8791 38.3899H37C38.4109 38.3742 39.7688 37.597 40.5026 36.4158C41.1304 35.4367 41.3234 34.2052 41.0447 33.0822C40.811 32.1134 40.2214 31.2307 39.405 30.641C38.7112 30.1314 37.8528 29.8517 36.9876 29.8359ZM35.0712 33.3143C35.4696 33.4289 35.8944 33.3592 36.2823 33.236C36.4961 33.1667 36.7065 33.0874 36.9169 33.0082L36.9169 33.0082L36.9169 33.0082C37.2571 32.8801 37.5973 32.7519 37.9516 32.6657C38.4259 32.5565 38.9587 32.6445 39.3385 32.9539C39.4137 33.0249 39.4135 33.1275 39.4134 33.2248C39.4133 33.2489 39.4133 33.2726 39.4144 33.2955C39.4101 33.6086 39.4116 33.9219 39.4131 34.2352C39.4154 34.6968 39.4176 35.1584 39.4014 35.6196C39.3442 35.5956 39.2872 35.5702 39.2302 35.5447C38.9955 35.4399 38.7595 35.3345 38.4955 35.3296C37.9451 35.2998 37.4362 35.4796 36.9264 35.6597C36.5116 35.8062 36.0961 35.9529 35.657 35.9872C35.2587 36.0145 34.8424 35.9217 34.5193 35.6857C34.4531 35.5956 34.4564 35.4828 34.4596 35.3723C34.4609 35.3274 34.4622 35.2829 34.4588 35.2404C34.465 34.9601 34.4623 34.6793 34.4595 34.3984C34.4552 33.9456 34.4508 33.4927 34.4835 33.0419C34.5562 33.0737 34.6261 33.1116 34.6961 33.1495C34.8165 33.2148 34.937 33.2801 35.0712 33.3143ZM43.4308 31.9659H43.4308H43.4308H43.4308H43.4307C43.2127 31.9672 42.9946 31.9686 42.7766 31.9661C42.7763 32.6862 42.7763 33.4064 42.7763 34.1268C42.7763 34.8471 42.7763 35.5675 42.776 36.2879C43.0189 36.2882 43.2617 36.2882 43.5045 36.2882H43.5056C43.7481 36.2882 43.9906 36.2882 44.2332 36.2886C44.5865 36.2892 44.9436 36.2224 45.2593 36.0617C46.0992 35.6564 46.5858 34.6821 46.4248 33.7788C46.2916 32.8384 45.4567 32.0395 44.4866 31.9758C44.1349 31.9615 43.7828 31.9637 43.4309 31.9659H43.4309H43.4309H43.4308H43.4308ZM43.6944 35.0041C43.6962 34.301 43.698 33.598 43.6917 32.895C43.7859 32.8978 43.8806 32.8962 43.9755 32.8946C44.1829 32.891 44.3907 32.8875 44.5938 32.9308C45.1001 33.0448 45.4905 33.5089 45.5262 34.0161C45.5799 34.5208 45.282 35.042 44.8084 35.2482C44.5517 35.3676 44.2696 35.3618 43.9904 35.356H43.9903C43.8906 35.354 43.7912 35.3519 43.6935 35.3556L43.6944 35.0041ZM48.0578 33.7158C48.0874 32.7785 48.9452 31.9365 49.9096 31.9686C50.855 31.9589 51.685 32.7828 51.7226 33.7019C51.7325 34.2298 51.731 34.758 51.7294 35.2861V35.2864V35.2864V35.2864V35.2864C51.7285 35.6206 51.7275 35.9547 51.7294 36.2887L51.7288 36.2887C51.4225 36.2893 51.1169 36.2899 50.8112 36.2887C50.8097 36.134 50.8098 35.9793 50.81 35.8247C50.8101 35.67 50.8103 35.5155 50.8087 35.3611C50.4482 35.3629 50.0879 35.3626 49.7277 35.3623H49.7275H49.7275H49.7274H49.7274C49.4753 35.362 49.2232 35.3618 48.9711 35.3623C48.9702 35.4777 48.9706 35.5931 48.9711 35.7085V35.7085V35.7085V35.7085C48.9718 35.9034 48.9726 36.0983 48.9668 36.293C48.7633 36.2881 48.5601 36.2886 48.3569 36.2892H48.3569H48.3569H48.3569C48.2553 36.2894 48.1538 36.2897 48.0522 36.2893C48.0534 35.9774 48.0525 35.6654 48.0517 35.3533V35.3532V35.3532V35.3532C48.0502 34.8072 48.0488 34.2613 48.0578 33.7158ZM49.206 33.2075C48.9557 33.4735 48.963 33.8325 48.97 34.1765V34.1765V34.1765V34.1766C48.9718 34.264 48.9735 34.3504 48.971 34.4341C49.2156 34.4344 49.4603 34.4342 49.7051 34.4341H49.7051H49.7051H49.706C50.0736 34.4339 50.4413 34.4337 50.8087 34.4347C50.8064 34.3514 50.8084 34.2653 50.8104 34.1784L50.8104 34.1782C50.818 33.842 50.826 33.4918 50.5904 33.2263C50.2617 32.8016 49.5464 32.7919 49.206 33.2075ZM53.3347 33.7228C53.3618 32.8977 54.0173 32.1321 54.8492 31.9932C55.4683 31.8761 56.1319 32.1157 56.5352 32.5901C56.8472 32.9281 57.0063 33.3855 57.0063 33.8393C57.0075 34.3826 57.0071 34.9256 57.0067 35.4687V35.4707C57.0065 35.7426 57.0063 36.0145 57.0063 36.2866C56.9023 36.2872 56.7982 36.2868 56.6941 36.2864C56.4933 36.2857 56.2924 36.285 56.0918 36.2914C56.0852 35.8292 56.0862 35.3667 56.0873 34.9043C56.0881 34.5487 56.0889 34.193 56.0862 33.8374C56.0912 33.5074 55.9117 33.1786 55.6182 33.0148C55.3136 32.8352 54.901 32.8619 54.6217 33.0779C54.3799 33.2557 54.2449 33.5517 54.2492 33.8465C54.2478 34.3108 54.248 34.7749 54.2482 35.239V35.2407C54.2483 35.5892 54.2485 35.9378 54.248 36.2866C54.1361 36.2861 54.0242 36.2863 53.9123 36.2865C53.7165 36.2869 53.5206 36.2872 53.3248 36.2841C53.3313 35.8726 53.3301 35.4609 53.3289 35.0492C53.3277 34.607 53.3264 34.1648 53.3347 33.7228ZM58.9079 32.8037C59.2625 32.2601 59.9174 31.9095 60.5791 31.9714C61.3271 32.0169 61.9906 32.5774 62.1978 33.2781C62.2743 33.5147 62.2779 33.7618 62.2816 34.0087C62.2836 34.15 62.2857 34.2911 62.3014 34.4302V36.2823C62.0665 36.2887 61.8315 36.2879 61.5966 36.2871C61.5183 36.2868 61.4399 36.2866 61.3616 36.2866C61.3612 36.1869 61.3614 36.0872 61.3616 35.9875C61.3619 35.777 61.3623 35.5663 61.3573 35.356C60.9853 35.3615 60.6131 35.3607 60.2409 35.36H60.2408H60.2407C60.0014 35.3595 59.762 35.359 59.5227 35.3602C59.5224 35.5146 59.5224 35.669 59.5224 35.8235C59.5224 35.9779 59.5224 36.1325 59.5221 36.2872H58.6033C58.603 35.8889 58.603 35.4908 58.603 35.0927C58.603 34.6947 58.603 34.2967 58.6026 33.8987C58.5983 33.5153 58.6915 33.1258 58.9079 32.8037ZM59.753 33.2097C59.5076 33.4748 59.5149 33.8309 59.5219 34.1722C59.5237 34.2598 59.5255 34.3465 59.523 34.4303C59.9313 34.4307 60.3397 34.4306 60.7479 34.4305H60.7489L61.3613 34.4303C61.3585 34.3448 61.3605 34.2565 61.3624 34.1672V34.1672C61.3697 33.8324 61.3772 33.4845 61.1411 33.2206C60.8093 32.7954 60.0909 32.7899 59.753 33.2097Z" fill="white"/>
<rect x="26" y="18" width="43" height="32" rx="9" stroke="white" stroke-opacity="0.2" stroke-width="6" shape-rendering="crispEdges"/>
</g>
<defs>
<filter id="filter0_d_144_438" x="0.727438" y="0.151626" width="93.5451" height="82.5451" filterUnits="userSpaceOnUse" color-interpolation-filters="sRGB">
<feFlood flood-opacity="0" result="BackgroundImageFix"/>
<feColorMatrix in="SourceAlpha" type="matrix" values="0 0 0 0 0 0 0 0 0 0 0 0 0 0 0 0 0 0 127 0" result="hardAlpha"/>
<feOffset dy="7.42419"/>
<feGaussianBlur stdDeviation="11.1363"/>
<feComposite in2="hardAlpha" operator="out"/>
<feColorMatrix type="matrix" values="0 0 0 0 0.795833 0 0 0 0 0.295122 0 0 0 0 0.355207 0 0 0 0.3 0"/>
<feBlend mode="normal" in2="BackgroundImageFix" result="effect1_dropShadow_144_438"/>
<feBlend mode="normal" in="SourceGraphic" in2="effect1_dropShadow_144_438" result="shape"/>
</filter>
</defs>
</svg>
