<svg width="95" height="83" viewBox="0 0 95 83" fill="none" xmlns="http://www.w3.org/2000/svg">
<g filter="url(#filter0_d_144_456)">
<rect x="29" y="21" width="37" height="26" rx="5.76117" fill="white"/>
<path fill-rule="evenodd" clip-rule="evenodd" d="M34.9643 30.9519C35.3152 30.8956 35.6752 30.9021 36.0278 30.9368C36.3546 31.0032 36.6844 31.0774 36.9844 31.2261C37.5913 31.511 38.1079 31.9728 38.4522 32.5414C38.7376 33.0667 38.934 33.6561 38.9046 34.258C38.9129 35.4938 38.117 36.6713 36.9897 37.1966C36.2589 37.5386 35.4088 37.5854 34.6279 37.3979C34.0997 37.2382 33.5901 36.9798 33.2052 36.5828C32.8386 36.2482 32.5619 35.8219 32.3862 35.363C32.1571 34.7985 32.1364 34.1708 32.2337 33.5762C32.4119 32.693 32.9666 31.8831 33.7517 31.4136C34.1171 31.1768 34.5372 31.0362 34.9643 30.9519ZM34.4955 32.536C34.2311 32.5625 33.9424 32.6538 33.7961 32.8885C33.6346 33.1134 33.6177 33.3946 33.6017 33.6618L33.5977 33.7273C33.5944 33.7947 33.5883 33.862 33.5822 33.9293C33.5698 34.0652 33.5575 34.2011 33.5683 34.3378C33.5763 34.4302 33.582 34.5229 33.5877 34.6156L33.5877 34.6156C33.6019 34.8472 33.6161 35.0789 33.6673 35.3062C33.7307 35.5927 33.9929 35.8149 34.2821 35.867C34.821 35.9626 35.3701 35.9542 35.9158 35.9459L36.0656 35.9437C36.2889 35.9314 36.5122 35.909 36.733 35.8744C37.0636 35.832 37.3557 35.5671 37.41 35.241C37.5048 34.8412 37.5218 34.4287 37.4936 34.0208C37.4406 33.7591 37.2525 33.5231 36.9969 33.4273C36.8818 33.3726 36.754 33.3729 36.6287 33.3733H36.6287C36.6066 33.3733 36.5846 33.3734 36.5627 33.3731C36.3163 33.3734 36.0698 33.3733 35.8234 33.3732C35.3921 33.3729 34.9609 33.3727 34.5298 33.3748C34.4803 33.3757 34.434 33.359 34.3882 33.3425L34.3882 33.3425C34.3712 33.3363 34.3542 33.3302 34.3372 33.325C34.336 33.2337 34.3393 33.0972 34.464 33.0948C34.7887 33.0876 35.1137 33.0897 35.4387 33.0918H35.4387C35.8667 33.0946 36.2947 33.0974 36.7218 33.0789C36.6754 32.8669 36.5441 32.6456 36.3179 32.5869C36.1137 32.5331 35.9024 32.5058 35.6923 32.4867C35.6324 32.4859 35.5724 32.4848 35.5124 32.4837L35.5124 32.4837H35.5124C35.1721 32.4773 34.8303 32.4709 34.4955 32.536ZM36.809 34.318C36.7 34.289 36.5695 34.3314 36.5314 34.4419C36.5075 34.569 36.5458 34.6915 36.5839 34.8132C36.5999 34.8643 36.6158 34.9153 36.6271 34.9664L36.7265 35.0231C36.7692 34.9986 36.8127 34.9766 36.8579 34.9575C36.8627 34.8499 36.8891 34.7464 36.9154 34.643C36.9271 34.5971 36.9388 34.5513 36.9486 34.5051C36.9283 34.4288 36.8773 34.3591 36.809 34.318Z" fill="#01ACD7"/>
<path fill-rule="evenodd" clip-rule="evenodd" d="M56.585 31.9018C55.9822 31.824 55.3293 31.9067 54.8293 32.269C54.5405 32.4948 54.2936 32.8054 54.2447 33.1746C54.3887 33.1989 54.5314 33.2295 54.6742 33.2602L54.6742 33.2602C54.8602 33.3001 55.0462 33.34 55.2349 33.3658C55.3165 33.0434 55.6007 32.787 55.9342 32.7341C56.15 32.6974 56.3746 32.7084 56.5846 32.7711C56.7681 32.8298 56.9078 33.0275 56.8274 33.2158C56.6777 33.3501 56.474 33.3907 56.28 33.4294C56.255 33.4344 56.2301 33.4393 56.2055 33.4444L56.1045 33.4586C55.6121 33.527 55.1001 33.5981 54.681 33.8781C54.1627 34.2347 54.1606 35.0739 54.64 35.4635C55.0356 35.7981 55.5928 35.8365 56.0891 35.7717C56.4326 35.7085 56.7785 35.5622 56.9977 35.2838C56.9989 35.3525 56.9989 35.4212 56.9989 35.4899C56.9989 35.5586 56.9989 35.6274 57.0001 35.6963L57.2271 35.6957C57.4669 35.6949 57.7069 35.6942 57.9472 35.6979C57.9481 35.2374 57.948 34.7771 57.9479 34.3169V34.3168V34.3168C57.9478 33.9717 57.9477 33.6265 57.948 33.2814C57.9518 33.0014 57.8478 32.7288 57.6912 32.4981C57.4368 32.1468 57.0051 31.9695 56.585 31.9018ZM55.2808 34.6888C55.2261 34.5612 55.3317 34.4353 55.4374 34.3725C55.6504 34.257 55.8903 34.2139 56.1296 34.1709C56.4181 34.1191 56.7058 34.0673 56.9454 33.8892C56.9431 33.9451 56.9449 34.0037 56.9468 34.0631C56.953 34.2637 56.9595 34.4735 56.8099 34.6232C56.5207 34.9069 56.0803 34.959 55.6913 34.9346C55.5298 34.9252 55.3172 34.8702 55.2808 34.6888ZM43.1619 31.9725C42.8424 31.8494 42.4878 31.8632 42.1531 31.904C41.4289 32.014 40.7934 32.5577 40.5788 33.2469C40.4814 33.52 40.4835 33.8147 40.5092 34.0995C40.5958 34.8283 41.153 35.4682 41.8602 35.6911C42.3615 35.8403 42.9398 35.8452 43.4026 35.5782C43.463 35.5453 43.5179 35.5047 43.5728 35.464L43.5728 35.464L43.5728 35.464L43.5728 35.464L43.5728 35.464C43.624 35.4261 43.6753 35.3882 43.7311 35.3565L43.7319 35.3944C43.7388 35.6947 43.7466 36.0345 43.5148 36.2613C43.3595 36.448 43.1246 36.5462 42.8872 36.582C42.3739 36.6746 41.8312 36.5022 41.4496 36.1565C41.3648 36.2415 41.2759 36.3227 41.1871 36.4039L41.1871 36.4039L41.1871 36.4039C41.0433 36.5353 40.8996 36.6666 40.7731 36.8139C41.1725 37.1856 41.6783 37.4538 42.2268 37.5252C42.7629 37.5916 43.3396 37.5594 43.8173 37.2884C44.2224 37.067 44.5414 36.6892 44.6665 36.2487C44.7442 36.0291 44.7431 35.7946 44.7421 35.5651L44.7419 35.5264C44.7415 34.3115 44.7415 33.0969 44.7419 31.882C44.5478 31.8796 44.3537 31.8797 44.1596 31.8798C44.0194 31.8799 43.8792 31.88 43.739 31.8791L43.7394 31.9792C43.74 32.0877 43.7407 32.1962 43.7381 32.3046C43.5654 32.1656 43.3744 32.043 43.1619 31.9725ZM41.8889 33.0304C42.055 32.8854 42.2754 32.8299 42.4904 32.7985C42.9184 32.7346 43.3998 32.9273 43.6189 33.3043C43.7073 33.4571 43.7036 33.6297 43.7 33.8008V33.8008C43.6987 33.8606 43.6975 33.9203 43.7001 33.9789C43.7362 34.3383 43.4516 34.6554 43.1255 34.7777C42.7315 34.9236 42.2456 34.9334 41.9017 34.664C41.3864 34.2837 41.376 33.416 41.8889 33.0304ZM51.9638 31.8796C51.5355 31.8767 51.0889 32.0027 50.7802 32.3067C50.7775 32.2678 50.7749 32.229 50.7723 32.1903L50.7723 32.1901C50.7679 32.1233 50.7635 32.0566 50.7583 31.99C50.421 31.986 50.0838 31.9847 49.7466 31.99C49.747 32.9959 49.747 34.0018 49.7469 35.0077C49.7469 35.7621 49.7468 36.5165 49.747 37.2709C49.9839 37.2859 50.2215 37.2846 50.4589 37.2833H50.459H50.459H50.459H50.459H50.459C50.5694 37.2827 50.6798 37.2821 50.7902 37.2831C50.7979 36.8172 50.7962 36.351 50.7944 35.8847V35.8847V35.8847V35.8846V35.8845C50.7939 35.7252 50.7933 35.5659 50.7931 35.4067C51.5371 35.9883 52.7216 35.9243 53.3906 35.2571C54.1189 34.5386 54.1608 33.258 53.4594 32.5081C53.0903 32.0907 52.5235 31.86 51.9638 31.8796ZM50.8424 33.3901C50.9513 33.0677 51.2844 32.8753 51.608 32.8122C51.9415 32.7457 52.3143 32.8285 52.572 33.0518C53.0087 33.4423 53.012 34.1926 52.6002 34.6014C52.1871 34.9947 51.4563 34.9873 51.0458 34.594C50.871 34.442 50.7794 34.204 50.7947 33.9766C50.7982 33.9166 50.7965 33.8558 50.7949 33.7949V33.7949C50.7912 33.6571 50.7875 33.519 50.8424 33.3901ZM46.7207 31.9277C47.3094 31.8112 47.9536 31.8813 48.4661 32.2037C48.8559 32.4352 49.1526 32.8105 49.2851 33.2389C49.467 33.8017 49.3854 34.4457 49.0448 34.9356C48.7064 35.4292 48.1284 35.7316 47.5319 35.7882C47.1644 35.8127 46.7845 35.8005 46.4369 35.6688C45.8611 35.4785 45.378 35.011 45.2081 34.4335C45.0259 33.8922 45.1104 33.2727 45.4227 32.7934C45.7119 32.3451 46.1966 32.039 46.7207 31.9277ZM46.9674 32.8158C46.8208 32.8569 46.6837 32.9287 46.5635 33.0204C46.1476 33.3428 46.0461 33.9802 46.3423 34.4118C46.6808 34.9608 47.5541 35.0692 48.0123 34.6095C48.2364 34.4069 48.3429 34.1045 48.313 33.8082C48.3383 33.1512 47.5976 32.6218 46.9674 32.8158ZM58.3635 31.9884C58.2521 31.9886 58.1407 31.9888 58.0294 31.9888C58.3232 32.5929 58.6236 33.194 58.924 33.7951C59.2059 34.3591 59.4878 34.9232 59.7644 35.4898C59.6284 35.7839 59.4806 36.0725 59.3329 36.3611C59.1766 36.6662 59.0204 36.9713 58.8782 37.2827C58.9979 37.2822 59.1177 37.2831 59.2375 37.284C59.5037 37.286 59.7701 37.2881 60.0361 37.2746C60.909 35.5147 61.7811 33.7548 62.6524 31.9941C62.2609 31.9843 61.8698 31.986 61.4787 31.9925C61.1033 32.8031 60.7234 33.6122 60.3415 34.4196C60.2288 34.1803 60.115 33.9416 60.0012 33.7029C59.8153 33.3129 59.6293 32.923 59.4487 32.5309C59.4198 32.467 59.3879 32.4045 59.356 32.3419C59.2975 32.2271 59.2391 32.1124 59.1989 31.99C58.9204 31.9874 58.642 31.9879 58.3635 31.9884Z" fill="#010101"/>
<rect x="26" y="18" width="43" height="32" rx="9" stroke="white" stroke-opacity="0.2" stroke-width="6" shape-rendering="crispEdges"/>
</g>
<defs>
<filter id="filter0_d_144_456" x="0.727438" y="0.151626" width="93.5451" height="82.5451" filterUnits="userSpaceOnUse" color-interpolation-filters="sRGB">
<feFlood flood-opacity="0" result="BackgroundImageFix"/>
<feColorMatrix in="SourceAlpha" type="matrix" values="0 0 0 0 0 0 0 0 0 0 0 0 0 0 0 0 0 0 127 0" result="hardAlpha"/>
<feOffset dy="7.42419"/>
<feGaussianBlur stdDeviation="11.1363"/>
<feComposite in2="hardAlpha" operator="out"/>
<feColorMatrix type="matrix" values="0 0 0 0 0.795833 0 0 0 0 0.295122 0 0 0 0 0.355207 0 0 0 0.3 0"/>
<feBlend mode="normal" in2="BackgroundImageFix" result="effect1_dropShadow_144_456"/>
<feBlend mode="normal" in="SourceGraphic" in2="effect1_dropShadow_144_456" result="shape"/>
</filter>
</defs>
</svg>
