<svg width="133" height="110" viewBox="0 0 133 110" fill="none" xmlns="http://www.w3.org/2000/svg">
<g filter="url(#filter0_d_243_759)">
<rect x="29" y="21" width="75" height="53" rx="5.76117" fill="#003D79"/>
<path fill-rule="evenodd" clip-rule="evenodd" d="M34.4241 49.0647C34.4241 48.1142 34.4072 47.3166 34.3564 46.6054H36.1172L36.1998 47.8273H36.2492C36.6482 47.1816 37.378 46.418 38.7394 46.418C39.802 46.418 40.6319 47.0301 40.9799 47.9459H41.0141C41.2968 47.4879 41.6277 47.1489 42.0092 46.9105C42.4578 46.5886 42.9726 46.418 43.6366 46.418C44.9808 46.418 46.3412 47.3508 46.3412 49.9976V54.8656H44.3495V50.3034C44.3495 48.9295 43.8854 48.1142 42.9066 48.1142C42.2083 48.1142 41.6931 48.6241 41.4788 49.2181C41.4284 49.421 41.3786 49.6757 41.3786 49.9115V54.8656H39.3863V50.0821C39.3863 48.9295 38.9388 48.1142 37.9925 48.1142C37.2288 48.1142 36.7149 48.7259 36.5318 49.3014C36.4483 49.5063 36.4148 49.7431 36.4148 49.9801V54.8656H34.4241V49.0647Z" fill="white"/>
<path fill-rule="evenodd" clip-rule="evenodd" d="M54.1009 52.8851C54.1009 53.6311 54.134 54.3592 54.2171 54.8695H52.374L52.2417 53.9538H52.1912C51.6935 54.599 50.847 55.0563 49.8013 55.0563C48.1742 55.0563 47.2617 53.8529 47.2617 52.5969C47.2617 50.5097 49.0703 49.459 52.0584 49.4758V49.3395C52.0584 48.7965 51.8424 47.8981 50.4151 47.8981C49.618 47.8981 48.7877 48.1527 48.2402 48.5083L47.8413 47.1525C48.44 46.7785 49.4867 46.4219 50.7638 46.4219C53.3543 46.4219 54.1009 48.1022 54.1009 49.8995V52.8851ZM52.1084 50.8352C50.6645 50.8009 49.2871 51.1232 49.2871 52.3786C49.2871 53.192 49.8016 53.566 50.4492 53.566C51.2615 53.566 51.8601 53.0229 52.0421 52.4295C52.0915 52.2768 52.1084 52.1065 52.1084 51.9713V50.8352Z" fill="white"/>
<path fill-rule="evenodd" clip-rule="evenodd" d="M55.5125 49.0647C55.5125 48.1142 55.4942 47.3166 55.4458 46.6054H57.237L57.3372 47.8435H57.3862C57.7352 47.1997 58.6149 46.418 59.9592 46.418C61.3706 46.418 62.8312 47.3508 62.8312 49.9637V54.8656H60.7898V50.2017C60.7898 49.0136 60.3582 48.1142 59.2459 48.1142C58.4325 48.1142 57.8684 48.7081 57.652 49.336C57.5867 49.523 57.5694 49.778 57.5694 50.0138V54.8656H55.5125V49.0647Z" fill="white"/>
<path fill-rule="evenodd" clip-rule="evenodd" d="M71.6832 43.293V52.548C71.6832 53.3959 71.7158 54.3136 71.7491 54.8727H69.9231L69.8414 53.5668H69.8075C69.3259 54.4832 68.345 55.0594 67.1678 55.0594C65.2431 55.0594 63.7155 53.3804 63.7155 50.836C63.6985 48.0708 65.3916 46.425 67.3336 46.425C68.4454 46.425 69.2428 46.9006 69.6074 47.5117H69.6411V43.293H71.6832ZM69.641 50.0535C69.641 49.8856 69.6239 49.6811 69.592 49.512C69.4091 48.6978 68.7613 48.0358 67.8317 48.0358C66.5205 48.0358 65.79 49.2238 65.79 50.7674C65.79 52.2767 66.5205 53.3795 67.8151 53.3795C68.6448 53.3795 69.3756 52.8029 69.5745 51.9041C69.6239 51.7167 69.641 51.5134 69.641 51.2921V50.0535Z" fill="white"/>
<path fill-rule="evenodd" clip-rule="evenodd" d="M73.126 54.8691H75.1863V46.6094H73.126V54.8691Z" fill="white"/>
<path fill-rule="evenodd" clip-rule="evenodd" d="M76.6293 49.2722C76.6293 48.1532 76.6121 47.3548 76.5625 46.6092H78.339L78.4039 48.1862H78.4728C78.8705 47.0158 79.8169 46.6092 80.6797 46.6092C80.8784 46.6092 80.9945 46.5744 81.161 46.6092V48.4417C80.9945 48.4078 80.8123 48.3739 80.5633 48.3739C79.5841 48.3739 78.9196 49.0179 78.7372 49.9502C78.7049 50.1369 78.6714 50.3584 78.6714 50.597V54.87H76.6293V49.2722Z" fill="white"/>
<path fill-rule="evenodd" clip-rule="evenodd" d="M82.1074 54.8691H84.1647V46.6094H82.1074V54.8691Z" fill="white"/>
<path fill-rule="evenodd" clip-rule="evenodd" d="M81.6205 36.6217C80.3847 37.353 77.4699 39.0614 76.3817 39.6976C75.7186 40.0428 74.1827 40.1936 73.314 38.9965C73.2984 38.9749 72.1585 37.5195 72.112 37.4647C72.0793 37.4259 71.3424 36.309 69.7004 36.2741C69.4578 36.2682 68.2516 36.2616 67.0747 36.9452C65.5104 37.8585 61.8721 39.984 61.8721 39.984C61.8711 39.984 61.8711 39.9859 61.8692 39.9859C60.3738 40.8603 59.2085 41.5411 59.2085 41.5411L60.5852 43.269C61.2293 44.0862 62.6816 44.7185 63.9411 43.9796C63.9411 43.9796 68.5949 41.2256 68.612 41.2177C70.6246 40.0897 72.1776 40.0897 73.2084 40.5094C74.1336 40.9089 74.9385 41.9043 74.9385 41.9043C74.9385 41.9043 75.9905 43.2365 76.176 43.4696C76.7746 44.2225 77.7652 43.9267 77.7652 43.9267C77.7652 43.9267 78.1324 43.8841 78.6857 43.5484C78.6857 43.5484 83.1935 40.8775 83.1964 40.8766C84.6277 40.0184 85.9405 39.8582 86.6115 39.9213C88.7129 40.1164 89.3658 41.6167 90.2769 42.6633C90.8136 43.2789 91.2977 43.6285 92.0382 43.6108C92.5247 43.6003 93.0744 43.2988 93.1554 43.2443L98.5534 40.061C98.5534 40.061 97.9995 39.2085 96.8652 37.8822C95.85 36.6988 94.7717 37.2342 93.912 37.6694C93.5508 37.8519 92.2421 38.7415 90.9455 39.3622C90.0217 39.8042 88.6947 39.6713 87.9674 38.753C87.9239 38.6971 86.7473 37.2415 86.6236 37.0624C86.1488 36.4545 85.2222 35.9102 84.0348 35.9102C83.3128 35.9102 82.4935 36.1114 81.6205 36.6217Z" fill="url(#paint0_linear_243_759)"/>
<rect x="26" y="18" width="81" height="59" rx="9" stroke="white" stroke-opacity="0.2" stroke-width="6" shape-rendering="crispEdges"/>
</g>
<defs>
<filter id="filter0_d_243_759" x="0.727438" y="0.151626" width="131.545" height="109.545" filterUnits="userSpaceOnUse" color-interpolation-filters="sRGB">
<feFlood flood-opacity="0" result="BackgroundImageFix"/>
<feColorMatrix in="SourceAlpha" type="matrix" values="0 0 0 0 0 0 0 0 0 0 0 0 0 0 0 0 0 0 127 0" result="hardAlpha"/>
<feOffset dy="7.42419"/>
<feGaussianBlur stdDeviation="11.1363"/>
<feComposite in2="hardAlpha" operator="out"/>
<feColorMatrix type="matrix" values="0 0 0 0 0.795833 0 0 0 0 0.295122 0 0 0 0 0.355207 0 0 0 0.3 0"/>
<feBlend mode="normal" in2="BackgroundImageFix" result="effect1_dropShadow_243_759"/>
<feBlend mode="normal" in="SourceGraphic" in2="effect1_dropShadow_243_759" result="shape"/>
</filter>
<linearGradient id="paint0_linear_243_759" x1="59.2085" y1="44.3068" x2="98.5534" y2="44.3068" gradientUnits="userSpaceOnUse">
<stop stop-color="#FFCA06"/>
<stop offset="0.330844" stop-color="#FBAA18"/>
<stop offset="0.694742" stop-color="#FFC907"/>
<stop offset="1" stop-color="#FAA619"/>
</linearGradient>
</defs>
</svg>
