<svg width="95" height="83" viewBox="0 0 95 83" fill="none" xmlns="http://www.w3.org/2000/svg">
<g filter="url(#filter0_d_144_457)">
<rect x="29" y="21" width="37" height="26" rx="5.76117" fill="#4C3494"/>
<path fill-rule="evenodd" clip-rule="evenodd" d="M40.5441 30.2948C39.7596 29.8948 38.8467 29.7611 37.974 29.875C37.1326 29.9816 36.3239 30.3406 35.6963 30.9039C35.0526 31.4704 34.6007 32.2389 34.4053 33.0654C34.1695 34.0465 34.2782 35.1091 34.7295 36.0164C35.1438 36.8638 35.8639 37.563 36.7318 37.9579C37.5913 38.3513 38.5821 38.4455 39.5073 38.2542C40.3962 38.0722 41.2172 37.5923 41.8089 36.9151C42.373 36.2754 42.7243 35.463 42.823 34.6231C42.9184 33.84 42.8004 33.0313 42.4759 32.3092C42.0913 31.4471 41.3987 30.72 40.5441 30.2948ZM37.0545 31.6957C37.4007 31.4497 37.8112 31.295 38.2339 31.2416C38.7402 31.1773 39.2672 31.2562 39.7249 31.4812C40.2638 31.7399 40.6963 32.1928 40.9509 32.7249C41.2401 33.3181 41.3187 34.002 41.2097 34.6486C41.1091 35.2386 40.8351 35.808 40.3971 36.228C40.0205 36.602 39.5198 36.8512 38.9915 36.9317C38.3446 37.0319 37.6578 36.8941 37.1157 36.5288C36.5557 36.1612 36.1627 35.5747 35.9929 34.9379C35.8253 34.3091 35.8463 33.6293 36.0653 33.0151C36.2516 32.4919 36.5939 32.0184 37.0545 31.6957ZM59.225 30.8552C58.3558 30.1 57.1605 29.7471 56.0108 29.855C55.7236 29.8808 55.4386 29.931 55.162 30.0115C54.1489 30.2983 53.2603 30.9812 52.7297 31.8767C52.0165 33.0577 51.9311 34.5735 52.4816 35.8327C52.8905 36.7814 53.672 37.5687 54.6302 37.9863C55.7184 38.4604 57.0062 38.4748 58.1041 38.0225C58.6637 37.7909 59.1713 37.437 59.5782 36.9937C60.3212 36.1952 60.7165 35.1056 60.6913 34.0268C60.6848 32.8302 60.1511 31.6374 59.225 30.8552ZM54.2473 32.3554C54.6558 31.7561 55.3297 31.3383 56.0591 31.2492C56.6375 31.1718 57.244 31.2851 57.7451 31.5833C58.2264 31.8643 58.6027 32.3051 58.8275 32.8076C59.2716 33.81 59.172 35.0524 58.5014 35.9365C58.1834 36.3553 57.737 36.6818 57.2301 36.8428C56.5935 37.0468 55.8767 37.0029 55.2737 36.7155C54.7982 36.4905 54.4006 36.1176 54.137 35.6689C53.5476 34.6613 53.5816 33.3203 54.2473 32.3554ZM43.2138 30.0682L43.2134 30.0682C43.2132 30.372 43.2132 30.6759 43.2133 30.9799C43.2133 31.1319 43.2134 31.2839 43.2134 31.4359C43.423 31.4364 43.6324 31.4364 43.842 31.4363C43.9118 31.4363 43.9817 31.4363 44.0515 31.4363C44.5698 32.6092 45.0875 33.7825 45.6051 34.9557C45.981 35.8079 46.357 36.6601 46.7332 37.512C46.9082 37.9073 47.276 38.2157 47.704 38.3134C47.8597 38.3534 48.0203 38.3518 48.1803 38.3502C48.2301 38.3497 48.2798 38.3492 48.3293 38.35C48.8204 37.2119 49.3131 36.0745 49.8059 34.9371C50.3932 33.5813 50.9805 32.2256 51.5651 30.8688C51.58 30.7038 51.5777 30.5371 51.5754 30.3704C51.574 30.2694 51.5727 30.1684 51.5751 30.0678H48.8585V30.0682C48.8582 30.5244 48.8578 30.9803 48.8585 31.4363C48.9767 31.4364 49.095 31.4364 49.2132 31.4363C49.3709 31.4363 49.5286 31.4362 49.6863 31.4366C49.47 31.9578 49.2543 32.4792 49.0386 33.0006C48.6202 34.0118 48.2018 35.023 47.7797 36.0326L45.8071 31.4366C45.9462 31.4361 46.0853 31.4362 46.2245 31.4363C46.3638 31.4363 46.503 31.4364 46.6423 31.4359V30.0682C45.4996 30.0675 44.3568 30.0678 43.2138 30.0682Z" fill="white"/>
<rect x="26" y="18" width="43" height="32" rx="9" stroke="white" stroke-opacity="0.2" stroke-width="6" shape-rendering="crispEdges"/>
</g>
<defs>
<filter id="filter0_d_144_457" x="0.727438" y="0.151626" width="93.5451" height="82.5451" filterUnits="userSpaceOnUse" color-interpolation-filters="sRGB">
<feFlood flood-opacity="0" result="BackgroundImageFix"/>
<feColorMatrix in="SourceAlpha" type="matrix" values="0 0 0 0 0 0 0 0 0 0 0 0 0 0 0 0 0 0 127 0" result="hardAlpha"/>
<feOffset dy="7.42419"/>
<feGaussianBlur stdDeviation="11.1363"/>
<feComposite in2="hardAlpha" operator="out"/>
<feColorMatrix type="matrix" values="0 0 0 0 0.795833 0 0 0 0 0.295122 0 0 0 0 0.355207 0 0 0 0.3 0"/>
<feBlend mode="normal" in2="BackgroundImageFix" result="effect1_dropShadow_144_457"/>
<feBlend mode="normal" in="SourceGraphic" in2="effect1_dropShadow_144_457" result="shape"/>
</filter>
</defs>
</svg>
